<?xml version="1.0" encoding="UTF-8" standalone="no"?>
<!-- Created with Inkscape (http://www.inkscape.org/) -->

<svg
   xmlns:dc="http://purl.org/dc/elements/1.1/"
   xmlns:cc="http://creativecommons.org/ns#"
   xmlns:rdf="http://www.w3.org/1999/02/22-rdf-syntax-ns#"
   xmlns:svg="http://www.w3.org/2000/svg"
   xmlns="http://www.w3.org/2000/svg"
   xmlns:sodipodi="http://sodipodi.sourceforge.net/DTD/sodipodi-0.dtd"
   xmlns:inkscape="http://www.inkscape.org/namespaces/inkscape"
   width="3000mm"
   height="250.88792mm"
   viewBox="0 0 2999.9999 250.88792"
   version="1.1"
   id="svg8"
   inkscape:version="0.92.4 (5da689c313, 2019-01-14)"
   sodipodi:docname="Title.svg">
  <defs
     id="defs2" />
  <sodipodi:namedview
     id="base"
     pagecolor="#ffffff"
     bordercolor="#666666"
     borderopacity="1.0"
     inkscape:pageopacity="0.0"
     inkscape:pageshadow="2"
     inkscape:zoom="0.16"
     inkscape:cx="5664.6087"
     inkscape:cy="-1451.3046"
     inkscape:document-units="mm"
     inkscape:current-layer="layer1"
     showgrid="false"
     inkscape:window-width="1920"
     inkscape:window-height="1017"
     inkscape:window-x="1912"
     inkscape:window-y="-8"
     inkscape:window-maximized="1"
     fit-margin-top="0"
     fit-margin-left="0"
     fit-margin-right="0"
     fit-margin-bottom="0" />
  <metadata
     id="metadata5">
    <rdf:RDF>
      <cc:Work
         rdf:about="">
        <dc:format>image/svg+xml</dc:format>
        <dc:type
           rdf:resource="http://purl.org/dc/dcmitype/StillImage" />
        <dc:title></dc:title>
      </cc:Work>
    </rdf:RDF>
  </metadata>
  <g
     inkscape:label="Layer 1"
     inkscape:groupmode="layer"
     id="layer1"
     transform="translate(442.20859,109.67224)">
    <flowRoot
       xml:space="preserve"
       id="flowRoot4536"
       style="font-style:normal;font-weight:normal;font-size:96px;line-height:1.25;font-family:sans-serif;letter-spacing:0px;word-spacing:0px;fill:#000000;fill-opacity:1;stroke:none"
       transform="scale(0.26458333)"><flowRegion
         id="flowRegion4538"><rect
           id="rect4540"
           width="68.690376"
           height="165.66502"
           x="957.62463"
           y="423.49411" /></flowRegion><flowPara
         id="flowPara4542" /></flowRoot>    <path
       style="opacity:1;fill:#000000;fill-opacity:1;stroke:#000000;stroke-width:3.67533851;stroke-linecap:round;stroke-linejoin:round;stroke-miterlimit:4;stroke-dasharray:none;stroke-opacity:1"
       d="m -160.54883,-274.75586 v 944.5625 H 11174.359 v -944.5625 z M 3666.8984,-43.847656 c 45.573,0 83.9844,5.750217 115.2344,17.251953 V 74.640625 c -31.25,-18.663194 -66.8409,-27.994141 -106.7715,-27.994141 -43.8368,0 -79.2094,13.781034 -106.1191,41.341797 -26.9097,27.560759 -40.3652,64.886499 -40.3652,111.978519 0,45.13888 12.6953,81.16254 38.0859,108.07226 25.3906,26.69271 59.5703,40.03906 102.5391,40.03906 41.0156,0 78.5596,-9.98198 112.6308,-29.94726 v 96.0293 c -34.0712,16.49305 -78.5584,24.73828 -133.4629,24.73828 -71.6146,0 -127.9297,-21.0497 -168.9453,-63.15039 -41.0156,-42.1007 -61.5234,-98.19944 -61.5234,-168.29493 0,-74.65277 23.0028,-135.199649 69.0097,-181.64062 46.224,-46.440971 106.1198,-69.660156 179.6875,-69.660156 z m 317.0567,7.8125 h 124.6758 l 166.0156,466.796876 h -114.584 l -33.2031,-103.8418 h -166.0156 l -32.877,103.8418 h -113.9336 z m 348.959,0 h 105.1425 V 345.47461 h 172.8516 v 85.28711 h -277.9941 z m 341.1464,0 h 269.2051 V 49.576172 H 4779.2031 V 153.41797 h 152.6699 v 85.28515 h -152.6699 v 106.77149 h 174.8047 v 85.28711 h -279.9473 z m 355.4688,0 h 169.9219 c 52.0833,0 92.1224,9.547309 120.1172,28.644531 27.9948,19.097222 41.9921,46.008247 41.9921,80.730469 0,25.17361 -8.5727,47.199866 -25.7167,66.080076 -16.9271,18.88021 -38.6279,32.0102 -65.1036,39.38867 v 1.30079 c 33.2032,4.12326 59.6776,16.38585 79.4258,36.78515 19.9653,20.39931 29.9492,45.2461 29.9492,74.54297 0,42.75174 -15.2994,76.71506 -45.8984,101.88867 -30.599,24.9566 -72.3748,37.43555 -125.3262,37.43555 h -179.3613 z m 610.6758,0 h 169.9219 c 52.0833,0 92.1223,9.547309 120.1171,28.644531 27.9948,19.097222 41.9922,46.008247 41.9922,80.730469 0,25.17361 -8.5707,47.199866 -25.7148,66.080076 -16.9271,18.88021 -38.6298,32.0102 -65.1055,39.38867 v 1.30079 c 33.2031,4.12326 59.6795,16.38585 79.4278,36.78515 19.9652,20.39931 29.9472,45.2461 29.9472,74.54297 0,42.75174 -15.2995,76.71506 -45.8984,101.88867 -30.599,24.9566 -72.3729,37.43555 -125.3242,37.43555 h -179.3633 z m 427.084,0 h 166.666 c 113.2812,0 169.9219,42.3177097 169.9219,126.953125 0,16.276041 -2.4951,31.357201 -7.4864,45.246091 -4.9913,13.67188 -12.0436,26.04167 -21.1582,37.10938 -9.1146,11.06771 -20.1823,20.61697 -33.2031,28.64648 -12.8038,8.02952 -27.1267,14.32357 -42.9688,18.88086 v 1.30078 c 6.9445,2.17014 13.6713,5.75087 20.1817,10.74219 6.5104,4.77431 12.8045,10.41732 18.8808,16.92773 6.0764,6.51042 11.8267,13.56272 17.252,21.15821 5.6424,7.37847 10.7415,14.64909 15.2988,21.81054 l 88.2168,138.02149 H 6338.123 l -72.5918,-120.11719 c -5.4253,-9.11458 -10.6336,-17.2526 -15.625,-24.41406 -4.9913,-7.16146 -10.0904,-13.23915 -15.2988,-18.23047 -4.9913,-5.20833 -10.3088,-9.11458 -15.9512,-11.71875 -5.4253,-2.82118 -11.3938,-4.23047 -17.9042,-4.23047 h -28.3204 v 178.71094 h -105.1425 z m 434.8964,0 h 269.2051 V 49.576172 H 6607.3281 V 153.41797 h 152.6699 v 85.28515 h -152.6699 v 106.77149 h 174.8047 v 85.28711 h -279.9473 z m 318.6836,0 h 371.0938 V 49.576172 H 7058.8262 V 430.76172 H 6953.3574 V 49.576172 h -132.4883 z m 403.6465,0 h 371.0938 V 49.576172 H 7462.4707 V 430.76172 H 7357.002 V 49.576172 H 7224.5156 Z M 5134.6719,41.4375 v 110.67773 h 46.2246 c 21.7014,0 38.7357,-5.20833 51.1055,-15.625 12.5868,-10.63368 18.8808,-25.17296 18.8808,-43.619136 0,-34.288194 -25.607,-51.433594 -76.8223,-51.433594 z m 610.6777,0 v 110.67773 h 46.2227 c 21.7014,0 38.7376,-5.20833 51.1074,-15.625 12.5868,-10.63368 18.8808,-25.17296 18.8808,-43.619136 0,-34.288194 -25.6089,-51.433594 -76.8242,-51.433594 z m 427.082,1.302734 V 172.62305 h 45.5743 c 22.5694,0 40.6894,-6.51042 54.3613,-19.53125 13.8889,-13.23785 20.834,-29.62305 20.834,-49.1543 0,-40.79861 -24.4141,-61.197266 -73.2422,-61.197266 z m -2130.207,4.556641 c -1.0851,13.671875 -3.7984,27.236545 -8.1387,40.691406 l -50.7812,158.203129 h 119.4668 L 4052.6406,89.289062 c -3.6892,-11.718749 -6.2934,-25.716146 -7.8125,-41.992187 z M 5134.6719,230.24023 v 123.04688 h 56.9668 c 24.3055,0 43.2929,-5.64301 56.9648,-16.92773 13.8889,-11.28473 20.834,-26.69141 20.834,-46.22266 0,-18.6632 -6.8359,-33.31163 -20.5078,-43.94531 -13.4549,-10.63368 -32.3351,-15.95118 -56.6406,-15.95118 z m 610.6777,0 v 123.04688 h 56.9649 c 24.3055,0 43.2949,-5.64301 56.9667,-16.92773 13.8889,-11.28473 20.834,-26.69141 20.834,-46.22266 0,-18.6632 -6.8359,-33.31163 -20.5078,-43.94531 -13.4548,-10.63368 -32.335,-15.95118 -56.6406,-15.95118 z"
       transform="matrix(0.26458333,0,0,0.26458333,-399.24383,-36.490199)"
       id="rect841"
       inkscape:connector-curvature="0" />
  </g>
</svg>
